<svg xmlns="http://www.w3.org/2000/svg" viewBox="0 0 636.54 777.38">
  <title>man-icon</title>
  <g>
    <path d="M635.59,645.16c-3.44-53.75-13.3-106-38.58-154.52-13.58-26.08-34.13-42.14-61.19-52.47-31.6-12.07-62.5-26-93.58-39.43-10.06-4.34-20.08.06-21.46,10.9-.79,6.2.48,12.64.38,19-.45,30.23,6.21,60.55-5.4,90.51-27,69.66-52.6,139.87-79.58,209.54-2.8,7.23-11.1,12.33-16.85,18.42-5.24-6-12.7-11.15-15.39-18.14Q262.52,621.1,222.65,512.67a84.57,84.57,0,0,1-4.91-28.48c-.08-23,1.53-46.08,1.87-69.13.21-14.58-9.78-21.52-21.56-16.46-31.63,13.6-63.2,27.35-95.19,40-25.57,10.14-45.63,25.18-58.71,50.3C23.9,527.79,12.44,568.89,7.58,612.15,5.14,633.79,2.53,655.41,0,677v27.69c3.6,31.75,26.48,41.73,53.32,45.75,53.92,8.07,108,15.23,162,22.81,9,1.26,18,2.73,26.92,4.1h155.7c24.46-2.56,49.14-3.81,73.33-7.94,47.46-8.11,94.67-17.65,141.91-27,14.25-2.81,22.22-12.71,22.66-26.79C636.55,692.2,637.08,668.59,635.59,645.16Z"/>
    <path d="M284.51,443.22l32.33,50.38c-6.89,6-12.73,11.55-19.12,16.43-10.76,8.21-13.15,17.51-10.44,31.35,7.51,38.32,12.66,77.1,19,115.66,3.57,21.72,7.63,43.36,12.17,69,3.56-5.75,5.37-7.43,5.7-9.36,7.08-42.51,14.44-85,20.82-127.59,5-33.59,22.8-70-18-95.14-.67-.41-.61-2-1.18-4.16l30-46.55Z"/>
    <path d="M165.66,234.73c15,43.15,26.09,87.91,55.67,125,28.32,35.54,62.89,53.32,97.49,53.07,34.59.25,69.17-17.53,97.48-53.07,29.58-37.12,40.63-81.88,55.67-125,3.41-9.77,4.45-23.48.12-32.17-7.7-15.47-2.8-28.53-.11-43.07,6.95-37.62,1.47-71.62-23.94-98.77C422.72,24.12,378.38,0,323.57,0c-1.57.15-3.16.33-4.75.52-1.6-.19-3.19-.37-4.76-.52-54.81,0-99.15,24.12-124.47,60.72-25.4,27.15-30.88,61.15-23.93,98.77,2.68,14.54,7.58,27.6-.12,43.07C161.22,211.25,162.25,225,165.66,234.73Z"/>
  </g>
</svg>
